<svg width="15" height="16" viewBox="0 0 15 16" fill="none" xmlns="http://www.w3.org/2000/svg">
<path d="M4.875 1.75H10.125C12.125 1.75 13.75 3.375 13.75 5.375V10.625C13.75 11.5864 13.3681 12.5084 12.6883 13.1883C12.0084 13.8681 11.0864 14.25 10.125 14.25H4.875C2.875 14.25 1.25 12.625 1.25 10.625V5.375C1.25 4.41359 1.63192 3.49156 2.31174 2.81174C2.99156 2.13192 3.91359 1.75 4.875 1.75ZM4.75 3C4.15326 3 3.58097 3.23705 3.15901 3.65901C2.73705 4.08097 2.5 4.65326 2.5 5.25V10.75C2.5 11.9937 3.50625 13 4.75 13H10.25C10.8467 13 11.419 12.7629 11.841 12.341C12.2629 11.919 12.5 11.3467 12.5 10.75V5.25C12.5 4.00625 11.4937 3 10.25 3H4.75ZM10.7812 3.9375C10.9885 3.9375 11.1872 4.01981 11.3337 4.16632C11.4802 4.31284 11.5625 4.51155 11.5625 4.71875C11.5625 4.92595 11.4802 5.12466 11.3337 5.27118C11.1872 5.41769 10.9885 5.5 10.7812 5.5C10.574 5.5 10.3753 5.41769 10.2288 5.27118C10.0823 5.12466 10 4.92595 10 4.71875C10 4.51155 10.0823 4.31284 10.2288 4.16632C10.3753 4.01981 10.574 3.9375 10.7812 3.9375ZM7.5 4.875C8.3288 4.875 9.12366 5.20424 9.70971 5.79029C10.2958 6.37634 10.625 7.1712 10.625 8C10.625 8.8288 10.2958 9.62366 9.70971 10.2097C9.12366 10.7958 8.3288 11.125 7.5 11.125C6.6712 11.125 5.87634 10.7958 5.29029 10.2097C4.70424 9.62366 4.375 8.8288 4.375 8C4.375 7.1712 4.70424 6.37634 5.29029 5.79029C5.87634 5.20424 6.6712 4.875 7.5 4.875ZM7.5 6.125C7.00272 6.125 6.52581 6.32254 6.17417 6.67417C5.82254 7.02581 5.625 7.50272 5.625 8C5.625 8.49728 5.82254 8.97419 6.17417 9.32583C6.52581 9.67746 7.00272 9.875 7.5 9.875C7.99728 9.875 8.47419 9.67746 8.82583 9.32583C9.17746 8.97419 9.375 8.49728 9.375 8C9.375 7.50272 9.17746 7.02581 8.82583 6.67417C8.47419 6.32254 7.99728 6.125 7.5 6.125Z" fill="white"/>
</svg>
