<svg width="19" height="19" viewBox="0 0 19 19" fill="none" xmlns="http://www.w3.org/2000/svg">
<path d="M5.31667 0H13.0167C15.95 0 18.3333 2.38333 18.3333 5.31667V13.0167C18.3333 14.4267 17.7732 15.7791 16.7761 16.7761C15.7791 17.7732 14.4267 18.3333 13.0167 18.3333H5.31667C2.38333 18.3333 0 15.95 0 13.0167V5.31667C0 3.9066 0.560147 2.55428 1.55722 1.55722C2.55428 0.560147 3.9066 0 5.31667 0ZM5.13333 1.83333C4.25812 1.83333 3.41875 2.18101 2.79988 2.79988C2.18101 3.41875 1.83333 4.25812 1.83333 5.13333V13.2C1.83333 15.0242 3.30917 16.5 5.13333 16.5H13.2C14.0752 16.5 14.9146 16.1523 15.5335 15.5335C16.1523 14.9146 16.5 14.0752 16.5 13.2V5.13333C16.5 3.30917 15.0242 1.83333 13.2 1.83333H5.13333ZM13.9792 3.20833C14.2831 3.20833 14.5745 3.32905 14.7894 3.54394C15.0043 3.75883 15.125 4.05027 15.125 4.35417C15.125 4.65806 15.0043 4.94951 14.7894 5.16439C14.5745 5.37928 14.2831 5.5 13.9792 5.5C13.6753 5.5 13.3838 5.37928 13.1689 5.16439C12.9541 4.94951 12.8333 4.65806 12.8333 4.35417C12.8333 4.05027 12.9541 3.75883 13.1689 3.54394C13.3838 3.32905 13.6753 3.20833 13.9792 3.20833ZM9.16667 4.58333C10.3822 4.58333 11.548 5.06622 12.4076 5.92576C13.2671 6.7853 13.75 7.95109 13.75 9.16667C13.75 10.3822 13.2671 11.548 12.4076 12.4076C11.548 13.2671 10.3822 13.75 9.16667 13.75C7.95109 13.75 6.7853 13.2671 5.92576 12.4076C5.06622 11.548 4.58333 10.3822 4.58333 9.16667C4.58333 7.95109 5.06622 6.7853 5.92576 5.92576C6.7853 5.06622 7.95109 4.58333 9.16667 4.58333ZM9.16667 6.41667C8.43732 6.41667 7.73785 6.7064 7.22212 7.22212C6.7064 7.73785 6.41667 8.43732 6.41667 9.16667C6.41667 9.89601 6.7064 10.5955 7.22212 11.1112C7.73785 11.6269 8.43732 11.9167 9.16667 11.9167C9.89601 11.9167 10.5955 11.6269 11.1112 11.1112C11.6269 10.5955 11.9167 9.89601 11.9167 9.16667C11.9167 8.43732 11.6269 7.73785 11.1112 7.22212C10.5955 6.7064 9.89601 6.41667 9.16667 6.41667Z" fill="black"/>
</svg>
