<svg width="213" height="60" viewBox="0 0 213 60" fill="none" xmlns="http://www.w3.org/2000/svg">
<path d="M12.76 25L6.438 18.127H5.046V25H1.74V7.6H5.046V15.43H6.351L12.557 7.6H16.298V7.919L8.787 16.532L16.588 24.681V25H12.76ZM48.8365 25L47.3285 20.563H39.9045L38.3965 25H34.9745L41.4415 7.6H45.9075L52.3745 25H48.8365ZM41.4995 15.952L40.7745 18.098H46.4585L45.7335 15.952C45.1245 14.183 44.5155 12.211 43.9935 10.471H43.2685C42.7465 12.211 42.1085 14.183 41.4995 15.952ZM79.0209 25H75.7149V7.6H79.0209V25ZM103.246 10.645V7.6H117.282V10.645H111.917V25H108.611V10.645H103.246ZM143.821 25.377C138.224 25.377 135.121 21.752 135.121 16.242C135.121 10.761 138.369 7.223 143.821 7.223C149.302 7.223 152.521 10.761 152.521 16.242C152.521 21.752 149.389 25.377 143.821 25.377ZM143.792 22.506C147.562 22.506 149.215 20.041 149.215 16.242C149.215 12.588 147.533 10.123 143.821 10.123C140.08 10.123 138.398 12.588 138.398 16.242C138.398 20.012 140.051 22.506 143.792 22.506ZM16.762 55H13.456V47.808H5.046V55H1.74V37.6H5.046V44.85H13.456V37.6H16.762V55ZM44.0125 55.377C38.4155 55.377 35.3125 51.752 35.3125 46.242C35.3125 40.761 38.5605 37.223 44.0125 37.223C49.4935 37.223 52.7125 40.761 52.7125 46.242C52.7125 51.752 49.5805 55.377 44.0125 55.377ZM43.9835 52.506C47.7535 52.506 49.4065 50.041 49.4065 46.242C49.4065 42.588 47.7245 40.123 44.0125 40.123C40.2715 40.123 38.5895 42.588 38.5895 46.242C38.5895 50.012 40.2425 52.506 43.9835 52.506ZM77.6369 55.377C72.3879 55.348 70.3869 52.912 69.9519 49.693L73.1129 49.026C73.5479 51.491 75.1139 52.68 77.7529 52.68C80.1599 52.68 81.2619 51.81 81.2619 50.389C81.2619 48.91 80.3049 48.156 76.8829 47.576C72.1269 46.793 70.6189 44.966 70.6189 42.24C70.6189 39.137 72.8229 37.223 77.2889 37.223C81.7549 37.223 83.5819 39.311 84.1619 42.356L80.8849 42.994C80.4209 40.935 79.5509 39.862 77.1149 39.862C74.9109 39.862 73.8669 40.674 73.8669 42.066C73.8669 43.313 74.5339 44.183 78.1879 44.85C83.3789 45.807 84.5679 47.692 84.5679 50.186C84.5679 53.376 82.5379 55.377 77.6369 55.377ZM118.251 55H114.945V47.808H106.535V55H103.229V37.6H106.535V44.85H114.945V37.6H118.251V55ZM141.006 55H137.7V37.6H141.006V55ZM171.292 55L166.826 47.083C165.869 45.314 164.651 42.588 163.781 40.5L163.259 40.558C163.433 43.081 163.578 46.735 163.578 49.026V55H160.475V37.6H165.202L169.03 44.415C170.306 46.677 171.611 49.606 172.394 51.607L172.916 51.578C172.742 49.113 172.597 45.923 172.597 43.632V37.6H175.642V55H171.292ZM202.889 55.377C197.292 55.377 194.189 51.752 194.189 46.242C194.189 40.761 197.437 37.223 202.889 37.223C208.37 37.223 211.589 40.761 211.589 46.242C211.589 51.752 208.457 55.377 202.889 55.377ZM202.86 52.506C206.63 52.506 208.283 50.041 208.283 46.242C208.283 42.588 206.601 40.123 202.889 40.123C199.148 40.123 197.466 42.588 197.466 46.242C197.466 50.012 199.119 52.506 202.86 52.506Z" fill="white"/>
</svg>
