<svg width="175" height="40" viewBox="0 0 175 40" fill="none" xmlns="http://www.w3.org/2000/svg">
<path d="M9.56 15L4.328 9.312H3.176V15H0.44V0.599999H3.176V7.08H4.256L9.392 0.599999H12.488V0.863999L6.272 7.992L12.728 14.736V15H9.56ZM39.4164 15L38.1684 11.328H32.0244L30.7764 15H27.9444L33.2964 0.599999H36.9924L42.3444 15H39.4164ZM33.3444 7.512L32.7444 9.288H37.4484L36.8484 7.512C36.3444 6.048 35.8404 4.416 35.4084 2.976H34.8084C34.3764 4.416 33.8484 6.048 33.3444 7.512ZM64.3966 15H61.6606V0.599999H64.3966V15ZM84.4451 3.12V0.599999H96.0611V3.12H91.6211V15H88.8851V3.12H84.4451ZM118.024 15.312C113.392 15.312 110.824 12.312 110.824 7.752C110.824 3.216 113.512 0.287999 118.024 0.287999C122.56 0.287999 125.224 3.216 125.224 7.752C125.224 12.312 122.632 15.312 118.024 15.312ZM118 12.936C121.12 12.936 122.488 10.896 122.488 7.752C122.488 4.728 121.096 2.688 118.024 2.688C114.928 2.688 113.536 4.728 113.536 7.752C113.536 10.872 114.904 12.936 118 12.936ZM12.872 39H10.136V33.048H3.176V39H0.44V24.6H3.176V30.6H10.136V24.6H12.872V39ZM35.4241 39.312C30.7921 39.312 28.2241 36.312 28.2241 31.752C28.2241 27.216 30.9121 24.288 35.4241 24.288C39.9601 24.288 42.6241 27.216 42.6241 31.752C42.6241 36.312 40.0321 39.312 35.4241 39.312ZM35.4001 36.936C38.5201 36.936 39.8881 34.896 39.8881 31.752C39.8881 28.728 38.4961 26.688 35.4241 26.688C32.3281 26.688 30.9361 28.728 30.9361 31.752C30.9361 34.872 32.3041 36.936 35.4001 36.936ZM63.2512 39.312C58.9072 39.288 57.2512 37.272 56.8912 34.608L59.5072 34.056C59.8672 36.096 61.1632 37.08 63.3472 37.08C65.3392 37.08 66.2512 36.36 66.2512 35.184C66.2512 33.96 65.4592 33.336 62.6272 32.856C58.6912 32.208 57.4432 30.696 57.4432 28.44C57.4432 25.872 59.2672 24.288 62.9632 24.288C66.6592 24.288 68.1712 26.016 68.6512 28.536L65.9392 29.064C65.5552 27.36 64.8352 26.472 62.8192 26.472C60.9952 26.472 60.1312 27.144 60.1312 28.296C60.1312 29.328 60.6832 30.048 63.7072 30.6C68.0032 31.392 68.9872 32.952 68.9872 35.016C68.9872 37.656 67.3072 39.312 63.2512 39.312ZM96.8626 39H94.1266V33.048H87.1666V39H84.4306V24.6H87.1666V30.6H94.1266V24.6H96.8626V39ZM115.695 39H112.959V24.6H115.695V39ZM140.759 39L137.063 32.448C136.271 30.984 135.263 28.728 134.543 27L134.111 27.048C134.255 29.136 134.375 32.16 134.375 34.056V39H131.807V24.6H135.719L138.887 30.24C139.943 32.112 141.023 34.536 141.671 36.192L142.103 36.168C141.959 34.128 141.839 31.488 141.839 29.592V24.6H144.359V39H140.759ZM166.908 39.312C162.276 39.312 159.708 36.312 159.708 31.752C159.708 27.216 162.396 24.288 166.908 24.288C171.444 24.288 174.108 27.216 174.108 31.752C174.108 36.312 171.516 39.312 166.908 39.312ZM166.884 36.936C170.004 36.936 171.372 34.896 171.372 31.752C171.372 28.728 169.98 26.688 166.908 26.688C163.812 26.688 162.42 28.728 162.42 31.752C162.42 34.872 163.788 36.936 166.884 36.936Z" fill="black"/>
</svg>
